<?xml version="1.0" standalone="no"?><!DOCTYPE svg PUBLIC "-//W3C//DTD SVG 1.1//EN" "http://www.w3.org/Graphics/SVG/1.1/DTD/svg11.dtd"><svg t="1649756059980" class="icon" viewBox="0 0 2236 1024" version="1.1" xmlns="http://www.w3.org/2000/svg" p-id="1987" xmlns:xlink="http://www.w3.org/1999/xlink" width="436.71875" height="200"><defs><style type="text/css">@font-face { font-family: feedback-iconfont; src: url("//at.alicdn.com/t/font_1031158_u69w8yhxdu.woff2?t=1630033759944") format("woff2"), url("//at.alicdn.com/t/font_1031158_u69w8yhxdu.woff?t=1630033759944") format("woff"), url("//at.alicdn.com/t/font_1031158_u69w8yhxdu.ttf?t=1630033759944") format("truetype"); }
</style></defs><path d="M1071.146095 679.406904a338.544964 338.544964 0 0 1-60.691956-14.20258c0.361083 5.777321 0.571714 11.584731 0.571714 17.452323a281.162931 281.162931 0 0 1-562.295772 0c0-5.867591 0.210631-11.675002 0.571714-17.452323a279.357519 279.357519 0 0 1 13.480414-70.260642 282.607262 282.607262 0 0 1 145.847253-165.917424 279.387609 279.387609 0 0 0 13.390144-70.230552 341.042451 341.042451 0 0 0-233.500037 320.611198v3.279833a341.343353 341.343353 0 0 0 682.656616 0c0-1.113338-0.03009-2.196585-0.03009-3.279833z" fill="#FFA600" p-id="1988"></path><path d="M783.212866 406.609051a278.906166 278.906166 0 0 1 67.913606 22.417207 282.607262 282.607262 0 0 1 145.847253 165.917424 278.906166 278.906166 0 0 0 67.913606 22.417207 342.516872 342.516872 0 0 0-227.241273-258.595273 338.544964 338.544964 0 0 0-60.691956-14.20258 341.373444 341.373444 0 0 0-94.212451 0 341.523895 341.523895 0 0 1-6.258763 62.015925 281.614285 281.614285 0 0 1 106.729978 0.03009z" fill="#FFA600" p-id="1989"></path><path d="M341.458479 0.00003a341.343353 341.343353 0 1 0 47.09118 679.406874 341.523895 341.523895 0 0 1 6.258764-62.015925 281.162931 281.162931 0 1 1 227.812987-276.047596c0 5.867591-0.210631 11.675002-0.571714 17.452323a279.387609 279.387609 0 0 1-13.480415 70.260642 282.607262 282.607262 0 0 1-145.847252 165.917424 279.357519 279.357519 0 0 0-13.450325 70.230552 341.042451 341.042451 0 0 0 233.500038-320.611198v-3.279833A341.704436 341.704436 0 0 0 341.458479 0.00003z" fill="#2167AD" p-id="1990"></path><path d="M1895.046162 0.00003A341.704436 341.704436 0 0 0 1553.702808 341.313293v3.279833a338.544964 338.544964 0 0 1 60.691956 14.20258c-0.361083-5.777321-0.571714-11.584731-0.571714-17.452323a281.072661 281.072661 0 1 1 14.022038 87.712965 278.906166 278.906166 0 0 0-67.913606-22.417207 342.516872 342.516872 0 0 0 227.301454 258.565183 338.544964 338.544964 0 0 0 60.691955 14.20258A341.343353 341.343353 0 1 0 1895.046162 0.00003z" fill="#ED0B00" p-id="1991"></path><path d="M1239.500825 594.943682a280.741668 280.741668 0 0 1-242.5271 0 282.607262 282.607262 0 0 1-145.847253-165.917424 278.906166 278.906166 0 0 0-67.913606-22.417207 342.516872 342.516872 0 0 0 227.241273 258.595273 338.544964 338.544964 0 0 0 60.691956 14.20258 341.373444 341.373444 0 0 0 94.21245 0 338.544964 338.544964 0 0 0 60.691956-14.20258 342.516872 342.516872 0 0 0 227.241273-258.595273 278.906166 278.906166 0 0 0-67.913606 22.417207 282.607262 282.607262 0 0 1-145.877343 165.917424zM1118.237275 0.00003a341.704436 341.704436 0 0 0-341.313263 341.313263v3.279833a338.544964 338.544964 0 0 1 60.691955 14.20258c-0.361083-5.777321-0.571714-11.584731-0.571714-17.452323a281.162931 281.162931 0 0 1 562.295773 0c0 5.867591-0.210631 11.675002-0.571714 17.452323a338.544964 338.544964 0 0 1 60.691956-14.20258v-3.279833A341.704436 341.704436 0 0 0 1118.237275 0.00003z" p-id="1992"></path><path d="M1847.924891 679.406904a338.544964 338.544964 0 0 1-60.691955-14.20258c0.361083 5.777321 0.571714 11.584731 0.571714 17.452323a281.162931 281.162931 0 0 1-562.295773 0c0-5.867591 0.210631-11.675002 0.571714-17.452323a338.544964 338.544964 0 0 1-60.691955 14.20258v3.279833a341.343353 341.343353 0 0 0 682.656616 0c-0.06018-1.113338-0.090271-2.196585-0.120361-3.279833zM1385.378168 429.026258a280.741668 280.741668 0 0 1 242.527101 0 282.607262 282.607262 0 0 1 145.847252 165.917424 278.906166 278.906166 0 0 0 67.913606 22.417207 342.516872 342.516872 0 0 0-227.241273-258.595273 338.544964 338.544964 0 0 0-60.691955-14.20258 341.373444 341.373444 0 0 0-94.212451 0 338.544964 338.544964 0 0 0-60.691956 14.20258 342.516872 342.516872 0 0 0-227.241273 258.595273 278.906166 278.906166 0 0 0 67.913606-22.417207 282.607262 282.607262 0 0 1 145.877343-165.917424z" fill="#36A23C" p-id="1993"></path></svg>